<?xml version="1.0" encoding="utf-8"?>
<!-- Generator: Adobe Illustrator 26.5.0, SVG Export Plug-In . SVG Version: 6.00 Build 0)  -->
<svg version="1.1" xmlns="http://www.w3.org/2000/svg" xmlns:xlink="http://www.w3.org/1999/xlink" x="0px" y="0px"
	 viewBox="0 0 899.21 339.62" style="enable-background:new 0 0 899.21 339.62;" xml:space="preserve">
<style type="text/css">
	.st0{fill:#1F74BA;}
</style>
<g id="Layer_1">
</g>
<g id="Layer_2">
	<circle class="st0" cx="99.08" cy="90.33" r="22.98"/>
	<circle class="st0" cx="45.05" cy="79.15" r="3.31"/>
	<circle class="st0" cx="40.11" cy="90.33" r="3.73"/>
	<circle class="st0" cx="36.75" cy="106.45" r="4.54"/>
	<circle class="st0" cx="103.35" cy="266.68" r="4.54"/>
	<circle class="st0" cx="35.97" cy="123.48" r="5.88"/>
	<circle class="st0" cx="103.35" cy="251.27" r="5.88"/>
	<circle class="st0" cx="40.9" cy="143.44" r="7.71"/>
	<circle class="st0" cx="99.08" cy="231.27" r="7.71"/>
	<circle class="st0" cx="50.09" cy="166.08" r="10.08"/>
	<circle class="st0" cx="89.37" cy="208.35" r="10.08"/>
	<circle class="st0" cx="68.9" cy="186.64" r="12.22"/>
	<path class="st0" d="M58.74,68.04c-4.38,7.2-16.71,31.3-7.11,61.32c10.33,32.27,34.14,42.37,56.23,78.33
		c0,0,14.36,23.25,7.12,52.47c-0.53,2.14-0.29,4.42,1.91,0.73c6.68-11.24,18.26-37.4,2.71-65.15
		c-14.51-25.89-31.35-38.94-38.12-46.53c0,0,67.92,2.64,70.47-53.21c0.02-0.48-0.18-0.98-0.64-0.12
		c-4.16,7.75-32.35,47.54-70.49,32.08c-25.91-10.5-22.92-48.89-21.18-59.2C59.9,67.25,59.62,66.6,58.74,68.04z"/>
	<g>
		<path d="M255.84,66.21v2.9h-12.45v32.8h-3.4v-32.8h-12.4v-2.9H255.84z"/>
		<path d="M261.69,66.21v14.35h0.1c0.6-1.57,1.67-2.83,3.2-3.78c1.53-0.95,3.22-1.42,5.05-1.42c1.8,0,3.31,0.23,4.52,0.7
			c1.22,0.47,2.19,1.12,2.92,1.97c0.73,0.85,1.25,1.89,1.55,3.12c0.3,1.23,0.45,2.62,0.45,4.15v16.6h-3.15v-16.1
			c0-1.1-0.1-2.12-0.3-3.08c-0.2-0.95-0.55-1.78-1.05-2.47c-0.5-0.7-1.17-1.25-2.02-1.65s-1.91-0.6-3.17-0.6
			c-1.27,0-2.39,0.22-3.38,0.67c-0.98,0.45-1.82,1.07-2.5,1.85c-0.68,0.78-1.22,1.72-1.6,2.8c-0.38,1.08-0.59,2.26-0.62,3.53v15.05
			h-3.15v-35.7H261.69z"/>
		<path d="M287.77,93.39c0.32,1.22,0.82,2.31,1.52,3.27c0.7,0.97,1.58,1.77,2.65,2.4c1.07,0.63,2.35,0.95,3.85,0.95
			c2.3,0,4.1-0.6,5.4-1.8c1.3-1.2,2.2-2.8,2.7-4.8h3.15c-0.67,2.93-1.89,5.2-3.68,6.8c-1.78,1.6-4.31,2.4-7.57,2.4
			c-2.03,0-3.79-0.36-5.27-1.08c-1.48-0.72-2.69-1.7-3.62-2.95c-0.93-1.25-1.62-2.7-2.08-4.35s-0.67-3.39-0.67-5.22
			c0-1.7,0.22-3.37,0.67-5s1.14-3.09,2.08-4.38c0.93-1.28,2.14-2.32,3.62-3.1c1.48-0.78,3.24-1.17,5.27-1.17
			c2.07,0,3.83,0.42,5.3,1.25c1.47,0.83,2.66,1.92,3.58,3.28c0.92,1.35,1.57,2.9,1.98,4.65c0.4,1.75,0.57,3.53,0.5,5.33h-19.85
			C287.29,90.99,287.45,92.17,287.77,93.39z M303.37,83.76c-0.38-1.1-0.92-2.08-1.62-2.93c-0.7-0.85-1.55-1.53-2.55-2.05
			c-1-0.52-2.13-0.77-3.4-0.77c-1.3,0-2.45,0.26-3.45,0.77c-1,0.52-1.85,1.2-2.55,2.05c-0.7,0.85-1.26,1.83-1.68,2.95
			c-0.42,1.12-0.69,2.26-0.82,3.42h16.7C303.96,86.01,303.75,84.86,303.37,83.76z"/>
	</g>
	<g>
		<path d="M170.88,155.58c1.48,3.04,3.51,5.45,6.09,7.26c2.58,1.8,5.64,3.1,9.16,3.88c3.52,0.78,7.3,1.17,11.32,1.17
			c2.29,0,4.8-0.33,7.5-0.98c2.71-0.66,5.23-1.7,7.56-3.14c2.34-1.43,4.28-3.28,5.84-5.54c1.56-2.25,2.34-4.98,2.34-8.18
			c0-2.46-0.55-4.59-1.66-6.4c-1.11-1.8-2.54-3.32-4.31-4.55c-1.76-1.23-3.71-2.23-5.84-3.01c-2.13-0.78-4.22-1.42-6.27-1.91
			l-19.56-4.8c-2.54-0.66-5.02-1.48-7.44-2.46c-2.42-0.98-4.53-2.29-6.33-3.94c-1.8-1.64-3.26-3.65-4.37-6.03
			c-1.11-2.38-1.66-5.29-1.66-8.73c0-2.13,0.41-4.63,1.23-7.5c0.82-2.87,2.36-5.58,4.61-8.12c2.25-2.54,5.35-4.69,9.29-6.46
			c3.94-1.76,8.98-2.64,15.13-2.64c4.35,0,8.49,0.58,12.42,1.72c3.94,1.15,7.38,2.87,10.33,5.17c2.95,2.3,5.31,5.15,7.07,8.55
			c1.76,3.4,2.64,7.36,2.64,11.87h-8.36c-0.17-3.36-0.92-6.29-2.28-8.79c-1.35-2.5-3.12-4.59-5.29-6.27
			c-2.17-1.68-4.67-2.95-7.5-3.81c-2.83-0.86-5.8-1.29-8.92-1.29c-2.87,0-5.64,0.31-8.3,0.92c-2.67,0.62-5,1.6-7.01,2.95
			c-2.01,1.35-3.63,3.14-4.86,5.35s-1.84,4.96-1.84,8.24c0,2.05,0.35,3.83,1.05,5.35c0.7,1.52,1.66,2.81,2.89,3.87
			c1.23,1.07,2.64,1.93,4.24,2.58c1.6,0.66,3.3,1.19,5.1,1.6l21.4,5.29c3.12,0.82,6.05,1.83,8.79,3.01
			c2.75,1.19,5.17,2.67,7.26,4.43c2.09,1.76,3.73,3.92,4.92,6.46c1.19,2.54,1.78,5.62,1.78,9.22c0,0.98-0.1,2.3-0.31,3.94
			c-0.21,1.64-0.7,3.38-1.48,5.23c-0.78,1.84-1.89,3.71-3.32,5.6c-1.44,1.89-3.4,3.59-5.9,5.1c-2.5,1.52-5.6,2.75-9.29,3.69
			s-8.12,1.42-13.28,1.42s-9.96-0.6-14.39-1.78c-4.43-1.19-8.2-3.01-11.32-5.47c-3.12-2.46-5.52-5.62-7.2-9.47
			c-1.68-3.85-2.4-8.49-2.15-13.9h8.36C168.7,148.77,169.4,152.55,170.88,155.58z"/>
		<path d="M279.73,118.43c-2.87-2.71-6.89-4.06-12.05-4.06c-3.69,0-6.93,0.78-9.72,2.34c-2.79,1.56-5.1,3.61-6.95,6.15
			c-1.84,2.54-3.24,5.43-4.18,8.67c-0.94,3.24-1.41,6.54-1.41,9.9c0,3.36,0.47,6.66,1.41,9.9c0.94,3.24,2.34,6.13,4.18,8.67
			c1.85,2.54,4.16,4.59,6.95,6.15c2.79,1.56,6.03,2.34,9.72,2.34c2.38,0,4.63-0.45,6.77-1.35c2.13-0.9,4.02-2.15,5.66-3.75
			c1.64-1.6,2.99-3.51,4.06-5.72c1.06-2.21,1.72-4.63,1.97-7.26h7.75c-1.07,7.71-3.9,13.71-8.49,18.02
			c-4.59,4.3-10.5,6.46-17.71,6.46c-4.84,0-9.12-0.88-12.85-2.64c-3.73-1.76-6.87-4.16-9.41-7.2c-2.54-3.03-4.47-6.58-5.78-10.64
			c-1.31-4.06-1.97-8.38-1.97-12.98c0-4.59,0.66-8.92,1.97-12.98c1.31-4.06,3.24-7.61,5.78-10.64c2.54-3.03,5.68-5.45,9.41-7.26
			c3.73-1.8,8.01-2.71,12.85-2.71c6.81,0,12.57,1.8,17.28,5.41c4.71,3.61,7.52,9.06,8.43,16.36h-7.75
			C284.57,124.87,282.6,121.14,279.73,118.43z"/>
		<path d="M306.3,119.54c1.31-2.71,3.09-4.92,5.35-6.64c2.25-1.72,4.9-2.99,7.93-3.81c3.03-0.82,6.4-1.23,10.09-1.23
			c2.79,0,5.58,0.27,8.36,0.8c2.79,0.54,5.29,1.54,7.5,3.01c2.21,1.48,4.02,3.55,5.41,6.21c1.39,2.67,2.09,6.13,2.09,10.39v33.7
			c0,3.12,1.52,4.67,4.55,4.67c0.9,0,1.72-0.16,2.46-0.49v6.52c-0.9,0.17-1.7,0.29-2.4,0.37c-0.7,0.08-1.58,0.12-2.64,0.12
			c-1.97,0-3.55-0.26-4.74-0.8c-1.19-0.53-2.11-1.29-2.77-2.28c-0.66-0.98-1.09-2.15-1.29-3.5c-0.21-1.35-0.31-2.85-0.31-4.49h-0.25
			c-1.4,2.05-2.81,3.87-4.24,5.47c-1.44,1.6-3.03,2.93-4.8,4c-1.76,1.07-3.77,1.88-6.03,2.46c-2.26,0.57-4.94,0.86-8.06,0.86
			c-2.95,0-5.72-0.35-8.3-1.05s-4.84-1.8-6.77-3.32c-1.93-1.52-3.44-3.44-4.55-5.78c-1.11-2.34-1.66-5.1-1.66-8.3
			c0-4.43,0.98-7.89,2.95-10.39c1.97-2.5,4.57-4.41,7.81-5.72c3.24-1.31,6.89-2.23,10.95-2.77c4.06-0.53,8.18-1.04,12.36-1.54
			c1.64-0.16,3.08-0.37,4.31-0.62s2.25-0.68,3.08-1.29c0.82-0.61,1.45-1.45,1.91-2.52c0.45-1.06,0.68-2.46,0.68-4.18
			c0-2.62-0.43-4.78-1.29-6.46c-0.86-1.68-2.05-3.01-3.57-4c-1.52-0.98-3.28-1.66-5.29-2.03c-2.01-0.37-4.16-0.55-6.46-0.55
			c-4.92,0-8.94,1.17-12.05,3.51c-3.12,2.34-4.76,6.09-4.92,11.25h-7.75C304.21,125.44,304.99,122.25,306.3,119.54z M345.04,138.48
			c-0.49,0.9-1.44,1.56-2.83,1.97c-1.4,0.41-2.63,0.7-3.69,0.86c-3.28,0.57-6.66,1.09-10.15,1.54c-3.49,0.45-6.66,1.13-9.53,2.03
			c-2.87,0.9-5.23,2.2-7.07,3.88c-1.85,1.68-2.77,4.08-2.77,7.2c0,1.97,0.39,3.71,1.17,5.23c0.78,1.52,1.82,2.83,3.14,3.94
			c1.31,1.11,2.83,1.95,4.55,2.52c1.72,0.58,3.48,0.86,5.29,0.86c2.95,0,5.78-0.45,8.49-1.35c2.71-0.9,5.06-2.21,7.07-3.94
			c2.01-1.72,3.61-3.81,4.8-6.27c1.19-2.46,1.78-5.25,1.78-8.36v-10.09H345.04z"/>
		<path d="M376.16,109.7v10.95h0.25c1.48-3.85,4.1-6.95,7.87-9.29c3.77-2.34,7.91-3.5,12.42-3.5c4.43,0,8.14,0.57,11.13,1.72
			c2.99,1.15,5.39,2.77,7.2,4.86c1.8,2.09,3.07,4.66,3.81,7.69c0.74,3.04,1.11,6.44,1.11,10.21v40.84h-7.75v-39.61
			c0-2.71-0.25-5.23-0.74-7.56c-0.49-2.34-1.35-4.37-2.58-6.09s-2.89-3.08-4.98-4.06c-2.09-0.98-4.7-1.48-7.81-1.48
			c-3.12,0-5.88,0.55-8.3,1.66c-2.42,1.11-4.47,2.62-6.15,4.55c-1.68,1.93-2.99,4.22-3.94,6.89c-0.94,2.67-1.46,5.56-1.54,8.67
			v37.02h-7.75V109.7H376.16z"/>
		<path d="M483.29,173.17v-12.05h-0.25c-0.82,2.05-2.03,3.94-3.63,5.66c-1.6,1.72-3.42,3.18-5.47,4.37
			c-2.05,1.19-4.24,2.11-6.58,2.77c-2.34,0.66-4.65,0.98-6.95,0.98c-4.84,0-9.04-0.88-12.61-2.64c-3.57-1.76-6.54-4.18-8.92-7.26
			c-2.38-3.07-4.14-6.64-5.29-10.7c-1.15-4.06-1.72-8.34-1.72-12.85c0-4.51,0.57-8.79,1.72-12.85c1.15-4.06,2.91-7.63,5.29-10.7
			c2.38-3.08,5.35-5.51,8.92-7.32c3.57-1.8,7.77-2.71,12.61-2.71c2.38,0,4.69,0.29,6.95,0.86c2.25,0.58,4.37,1.46,6.33,2.64
			c1.97,1.19,3.71,2.64,5.23,4.37c1.52,1.72,2.68,3.73,3.5,6.03h0.25V85.35h7.75v87.82H483.29z M440.8,151.21
			c0.78,3.24,2.01,6.13,3.69,8.67c1.68,2.54,3.83,4.61,6.46,6.21c2.62,1.6,5.78,2.4,9.47,2.4c4.1,0,7.56-0.8,10.39-2.4
			s5.12-3.67,6.89-6.21c1.76-2.54,3.03-5.43,3.81-8.67c0.78-3.24,1.17-6.5,1.17-9.78c0-3.28-0.39-6.54-1.17-9.78
			c-0.78-3.24-2.05-6.13-3.81-8.67c-1.76-2.54-4.06-4.61-6.89-6.21c-2.83-1.6-6.29-2.4-10.39-2.4c-3.69,0-6.85,0.8-9.47,2.4
			c-2.63,1.6-4.78,3.67-6.46,6.21c-1.68,2.54-2.91,5.43-3.69,8.67c-0.78,3.24-1.17,6.5-1.17,9.78
			C439.63,144.71,440.02,147.97,440.8,151.21z"/>
		<path d="M513.06,85.35v12.42h-7.75V85.35H513.06z M513.06,109.7v63.47h-7.75V109.7H513.06z"/>
		<path d="M535.57,109.7v10.95h0.25c1.48-3.85,4.1-6.95,7.87-9.29c3.77-2.34,7.91-3.5,12.42-3.5c4.43,0,8.14,0.57,11.13,1.72
			c2.99,1.15,5.39,2.77,7.2,4.86c1.8,2.09,3.08,4.66,3.81,7.69c0.74,3.04,1.11,6.44,1.11,10.21v40.84h-7.75v-39.61
			c0-2.71-0.25-5.23-0.74-7.56c-0.49-2.34-1.35-4.37-2.58-6.09c-1.23-1.72-2.89-3.08-4.98-4.06c-2.09-0.98-4.7-1.48-7.81-1.48
			c-3.12,0-5.88,0.55-8.3,1.66c-2.42,1.11-4.47,2.62-6.15,4.55c-1.68,1.93-2.99,4.22-3.94,6.89c-0.94,2.67-1.46,5.56-1.54,8.67
			v37.02h-7.75V109.7H535.57z"/>
		<path d="M595.59,119.54c1.31-2.71,3.09-4.92,5.35-6.64c2.25-1.72,4.9-2.99,7.93-3.81c3.03-0.82,6.4-1.23,10.09-1.23
			c2.79,0,5.58,0.27,8.36,0.8c2.79,0.54,5.29,1.54,7.5,3.01c2.21,1.48,4.02,3.55,5.41,6.21c1.39,2.67,2.09,6.13,2.09,10.39v33.7
			c0,3.12,1.52,4.67,4.55,4.67c0.9,0,1.72-0.16,2.46-0.49v6.52c-0.9,0.17-1.7,0.29-2.4,0.37c-0.7,0.08-1.58,0.12-2.64,0.12
			c-1.97,0-3.55-0.26-4.74-0.8c-1.19-0.53-2.11-1.29-2.77-2.28c-0.66-0.98-1.09-2.15-1.29-3.5c-0.21-1.35-0.31-2.85-0.31-4.49h-0.25
			c-1.4,2.05-2.81,3.87-4.24,5.47c-1.44,1.6-3.04,2.93-4.8,4c-1.76,1.07-3.77,1.88-6.03,2.46c-2.26,0.57-4.94,0.86-8.06,0.86
			c-2.95,0-5.72-0.35-8.3-1.05s-4.84-1.8-6.76-3.32c-1.93-1.52-3.44-3.44-4.55-5.78c-1.11-2.34-1.66-5.1-1.66-8.3
			c0-4.43,0.98-7.89,2.95-10.39c1.97-2.5,4.57-4.41,7.81-5.72c3.24-1.31,6.89-2.23,10.95-2.77c4.06-0.53,8.18-1.04,12.36-1.54
			c1.64-0.16,3.08-0.37,4.3-0.62c1.23-0.25,2.25-0.68,3.08-1.29c0.82-0.61,1.46-1.45,1.91-2.52c0.45-1.06,0.68-2.46,0.68-4.18
			c0-2.62-0.43-4.78-1.29-6.46c-0.86-1.68-2.05-3.01-3.57-4c-1.52-0.98-3.28-1.66-5.29-2.03c-2.01-0.37-4.16-0.55-6.46-0.55
			c-4.92,0-8.94,1.17-12.05,3.51c-3.12,2.34-4.76,6.09-4.92,11.25h-7.75C593.5,125.44,594.28,122.25,595.59,119.54z M634.34,138.48
			c-0.49,0.9-1.44,1.56-2.83,1.97c-1.39,0.41-2.62,0.7-3.69,0.86c-3.28,0.57-6.66,1.09-10.15,1.54c-3.49,0.45-6.66,1.13-9.53,2.03
			c-2.87,0.9-5.23,2.2-7.07,3.88c-1.84,1.68-2.77,4.08-2.77,7.2c0,1.97,0.39,3.71,1.17,5.23c0.78,1.52,1.82,2.83,3.14,3.94
			c1.31,1.11,2.83,1.95,4.55,2.52c1.72,0.58,3.48,0.86,5.29,0.86c2.95,0,5.78-0.45,8.49-1.35c2.71-0.9,5.06-2.21,7.07-3.94
			c2.01-1.72,3.61-3.81,4.8-6.27c1.19-2.46,1.78-5.25,1.78-8.36v-10.09H634.34z"/>
		<path d="M659.3,109.7l19.93,55.72h0.25l19.68-55.72h8l-23.74,63.47h-8.24l-24.48-63.47H659.3z"/>
		<path d="M722.65,85.35v12.42h-7.75V85.35H722.65z M722.65,109.7v63.47h-7.75V109.7H722.65z"/>
		<path d="M739.13,119.54c1.31-2.71,3.09-4.92,5.35-6.64c2.25-1.72,4.9-2.99,7.93-3.81c3.03-0.82,6.4-1.23,10.09-1.23
			c2.79,0,5.58,0.27,8.36,0.8c2.79,0.54,5.29,1.54,7.5,3.01c2.21,1.48,4.02,3.55,5.41,6.21c1.39,2.67,2.09,6.13,2.09,10.39v33.7
			c0,3.12,1.52,4.67,4.55,4.67c0.9,0,1.72-0.16,2.46-0.49v6.52c-0.9,0.17-1.7,0.29-2.4,0.37c-0.7,0.08-1.58,0.12-2.64,0.12
			c-1.97,0-3.55-0.26-4.74-0.8c-1.19-0.53-2.11-1.29-2.77-2.28c-0.66-0.98-1.09-2.15-1.29-3.5c-0.21-1.35-0.31-2.85-0.31-4.49h-0.25
			c-1.4,2.05-2.81,3.87-4.24,5.47c-1.44,1.6-3.04,2.93-4.8,4c-1.76,1.07-3.77,1.88-6.03,2.46c-2.26,0.57-4.94,0.86-8.06,0.86
			c-2.95,0-5.72-0.35-8.3-1.05s-4.84-1.8-6.76-3.32c-1.93-1.52-3.44-3.44-4.55-5.78c-1.11-2.34-1.66-5.1-1.66-8.3
			c0-4.43,0.98-7.89,2.95-10.39c1.97-2.5,4.57-4.41,7.81-5.72c3.24-1.31,6.89-2.23,10.95-2.77c4.06-0.53,8.18-1.04,12.36-1.54
			c1.64-0.16,3.08-0.37,4.3-0.62c1.23-0.25,2.25-0.68,3.08-1.29c0.82-0.61,1.46-1.45,1.91-2.52c0.45-1.06,0.68-2.46,0.68-4.18
			c0-2.62-0.43-4.78-1.29-6.46c-0.86-1.68-2.05-3.01-3.57-4c-1.52-0.98-3.28-1.66-5.29-2.03c-2.01-0.37-4.16-0.55-6.46-0.55
			c-4.92,0-8.94,1.17-12.05,3.51c-3.12,2.34-4.76,6.09-4.92,11.25h-7.75C737.04,125.44,737.82,122.25,739.13,119.54z M777.88,138.48
			c-0.49,0.9-1.44,1.56-2.83,1.97c-1.39,0.41-2.62,0.7-3.69,0.86c-3.28,0.57-6.66,1.09-10.15,1.54c-3.49,0.45-6.66,1.13-9.53,2.03
			c-2.87,0.9-5.23,2.2-7.07,3.88c-1.84,1.68-2.77,4.08-2.77,7.2c0,1.97,0.39,3.71,1.17,5.23c0.78,1.52,1.82,2.83,3.14,3.94
			c1.31,1.11,2.83,1.95,4.55,2.52c1.72,0.58,3.48,0.86,5.29,0.86c2.95,0,5.78-0.45,8.49-1.35c2.71-0.9,5.06-2.21,7.07-3.94
			c2.01-1.72,3.61-3.81,4.8-6.27c1.19-2.46,1.78-5.25,1.78-8.36v-10.09H777.88z"/>
		<path d="M808.99,109.7v10.95h0.25c1.48-3.85,4.1-6.95,7.87-9.29c3.77-2.34,7.91-3.5,12.42-3.5c4.43,0,8.14,0.57,11.13,1.72
			c2.99,1.15,5.39,2.77,7.2,4.86c1.8,2.09,3.08,4.66,3.81,7.69c0.74,3.04,1.11,6.44,1.11,10.21v40.84h-7.75v-39.61
			c0-2.71-0.25-5.23-0.74-7.56c-0.49-2.34-1.35-4.37-2.58-6.09c-1.23-1.72-2.89-3.08-4.98-4.06c-2.09-0.98-4.7-1.48-7.81-1.48
			c-3.12,0-5.88,0.55-8.3,1.66c-2.42,1.11-4.47,2.62-6.15,4.55c-1.68,1.93-2.99,4.22-3.94,6.89c-0.94,2.67-1.46,5.56-1.54,8.67
			v37.02h-7.75V109.7H808.99z"/>
	</g>
	<g>
		<path d="M470.79,184.4l29.15,77l30.26-77h12.3v87.82h-8.36v-75.89h-0.25l-30.01,75.89h-7.87l-28.9-75.89h-0.25v75.89h-8.36V184.4
			H470.79z"/>
		<path d="M563.97,251.25c0.78,3,2.03,5.68,3.75,8.06c1.72,2.38,3.89,4.35,6.52,5.9c2.62,1.56,5.78,2.34,9.47,2.34
			c5.66,0,10.09-1.48,13.28-4.43s5.41-6.89,6.64-11.81h7.75c-1.64,7.22-4.66,12.79-9.04,16.73c-4.39,3.94-10.6,5.9-18.63,5.9
			c-5,0-9.33-0.88-12.98-2.64c-3.65-1.76-6.62-4.18-8.92-7.26c-2.3-3.07-4-6.64-5.1-10.7c-1.11-4.06-1.66-8.34-1.66-12.85
			c0-4.18,0.55-8.28,1.66-12.3c1.11-4.02,2.81-7.6,5.1-10.76c2.29-3.16,5.27-5.7,8.92-7.63c3.65-1.93,7.97-2.89,12.98-2.89
			c5.08,0,9.43,1.03,13.04,3.08c3.61,2.05,6.54,4.74,8.79,8.06c2.25,3.32,3.87,7.13,4.86,11.44s1.39,8.67,1.23,13.1H562.8
			C562.8,245.36,563.19,248.25,563.97,251.25z M602.34,227.57c-0.94-2.71-2.28-5.1-4-7.2c-1.72-2.09-3.81-3.77-6.27-5.04
			c-2.46-1.27-5.25-1.91-8.36-1.91c-3.2,0-6.03,0.64-8.49,1.91c-2.46,1.27-4.55,2.95-6.27,5.04c-1.72,2.09-3.1,4.51-4.12,7.26
			c-1.03,2.75-1.7,5.56-2.03,8.42h41.08C603.8,233.1,603.28,230.27,602.34,227.57z"/>
		<path d="M647.3,208.75v6.52h-12.92v42.8c0,2.54,0.35,4.53,1.05,5.96c0.7,1.44,2.44,2.24,5.23,2.4c2.21,0,4.43-0.12,6.64-0.37v6.52
			c-1.15,0-2.3,0.04-3.44,0.12c-1.15,0.08-2.3,0.12-3.44,0.12c-5.17,0-8.78-1-10.82-3.01c-2.05-2.01-3.04-5.72-2.95-11.13v-43.42
			h-11.07v-6.52h11.07v-19.07h7.75v19.07H647.3z"/>
		<path d="M666.12,184.4v35.3h0.25c1.48-3.85,4.1-6.95,7.87-9.29c3.77-2.34,7.91-3.5,12.42-3.5c4.43,0,8.14,0.57,11.13,1.72
			c2.99,1.15,5.39,2.77,7.2,4.86c1.8,2.09,3.08,4.66,3.81,7.69c0.74,3.04,1.11,6.44,1.11,10.21v40.84h-7.75v-39.61
			c0-2.71-0.25-5.23-0.74-7.56c-0.49-2.34-1.35-4.37-2.58-6.09c-1.23-1.72-2.89-3.08-4.98-4.06c-2.09-0.98-4.7-1.48-7.81-1.48
			c-3.12,0-5.88,0.55-8.3,1.66c-2.42,1.11-4.47,2.62-6.15,4.55c-1.68,1.93-2.99,4.22-3.94,6.89c-0.94,2.67-1.46,5.56-1.54,8.67
			v37.02h-7.75V184.4H666.12z"/>
		<path d="M764.21,209.61c3.73,1.8,6.87,4.22,9.41,7.26c2.54,3.03,4.47,6.58,5.78,10.64c1.31,4.06,1.97,8.38,1.97,12.98
			c0,4.59-0.66,8.92-1.97,12.98c-1.31,4.06-3.24,7.61-5.78,10.64c-2.54,3.04-5.68,5.43-9.41,7.2c-3.73,1.76-8.02,2.64-12.85,2.64
			c-4.84,0-9.12-0.88-12.85-2.64c-3.73-1.76-6.87-4.16-9.41-7.2c-2.54-3.03-4.47-6.58-5.78-10.64c-1.31-4.06-1.97-8.38-1.97-12.98
			c0-4.59,0.66-8.92,1.97-12.98c1.31-4.06,3.24-7.61,5.78-10.64c2.54-3.03,5.68-5.45,9.41-7.26c3.73-1.8,8.01-2.71,12.85-2.71
			C756.19,206.9,760.47,207.81,764.21,209.61z M741.64,215.76c-2.79,1.56-5.1,3.61-6.95,6.15c-1.84,2.54-3.24,5.43-4.18,8.67
			c-0.94,3.24-1.42,6.54-1.42,9.9c0,3.36,0.47,6.66,1.42,9.9c0.94,3.24,2.34,6.13,4.18,8.67c1.84,2.54,4.16,4.59,6.95,6.15
			c2.79,1.56,6.03,2.34,9.72,2.34c3.69,0,6.93-0.78,9.72-2.34c2.79-1.56,5.1-3.61,6.95-6.15c1.84-2.54,3.24-5.43,4.18-8.67
			c0.94-3.24,1.41-6.54,1.41-9.9c0-3.36-0.47-6.66-1.41-9.9c-0.94-3.24-2.34-6.13-4.18-8.67c-1.84-2.54-4.16-4.59-6.95-6.15
			c-2.79-1.56-6.03-2.34-9.72-2.34C747.66,213.42,744.42,214.2,741.64,215.76z"/>
		<path d="M841.63,272.22v-12.05h-0.25c-0.82,2.05-2.03,3.94-3.63,5.66c-1.6,1.72-3.42,3.18-5.47,4.37
			c-2.05,1.19-4.24,2.11-6.58,2.77c-2.34,0.66-4.65,0.98-6.95,0.98c-4.84,0-9.04-0.88-12.61-2.64c-3.57-1.76-6.54-4.18-8.92-7.26
			c-2.38-3.07-4.14-6.64-5.29-10.7c-1.15-4.06-1.72-8.34-1.72-12.85c0-4.51,0.57-8.79,1.72-12.85c1.15-4.06,2.91-7.63,5.29-10.7
			c2.38-3.08,5.35-5.51,8.92-7.32c3.57-1.8,7.77-2.71,12.61-2.71c2.38,0,4.69,0.29,6.95,0.86c2.25,0.58,4.37,1.46,6.33,2.64
			c1.97,1.19,3.71,2.64,5.23,4.37c1.52,1.72,2.68,3.73,3.5,6.03h0.25V184.4h7.75v87.82H841.63z M799.14,250.26
			c0.78,3.24,2.01,6.13,3.69,8.67c1.68,2.54,3.83,4.61,6.46,6.21c2.62,1.6,5.78,2.4,9.47,2.4c4.1,0,7.56-0.8,10.39-2.4
			s5.12-3.67,6.89-6.21c1.76-2.54,3.03-5.43,3.81-8.67c0.78-3.24,1.17-6.5,1.17-9.78c0-3.28-0.39-6.54-1.17-9.78
			c-0.78-3.24-2.05-6.13-3.81-8.67c-1.76-2.54-4.06-4.61-6.89-6.21c-2.83-1.6-6.29-2.4-10.39-2.4c-3.69,0-6.85,0.8-9.47,2.4
			c-2.63,1.6-4.78,3.67-6.46,6.21c-1.68,2.54-2.91,5.43-3.69,8.67c-0.78,3.24-1.17,6.5-1.17,9.78
			C797.97,243.76,798.36,247.02,799.14,250.26z"/>
	</g>
	<circle class="st0" cx="99.08" cy="90.33" r="22.98"/>
	<circle class="st0" cx="45.05" cy="79.15" r="3.31"/>
	<circle class="st0" cx="40.11" cy="90.33" r="3.73"/>
	<circle class="st0" cx="36.75" cy="106.45" r="4.54"/>
	<circle class="st0" cx="103.35" cy="266.68" r="4.54"/>
	<circle class="st0" cx="35.97" cy="123.48" r="5.88"/>
	<circle class="st0" cx="103.35" cy="251.27" r="5.88"/>
	<circle class="st0" cx="40.9" cy="143.44" r="7.71"/>
	<circle class="st0" cx="99.08" cy="231.27" r="7.71"/>
	<circle class="st0" cx="50.09" cy="166.08" r="10.08"/>
	<circle class="st0" cx="89.37" cy="208.35" r="10.08"/>
	<circle class="st0" cx="68.9" cy="186.64" r="12.22"/>
	<path class="st0" d="M58.74,68.04c-4.38,7.2-16.71,31.3-7.11,61.32c10.33,32.27,34.14,42.37,56.23,78.33
		c0,0,14.36,23.25,7.12,52.47c-0.53,2.14-0.29,4.42,1.91,0.73c6.68-11.24,18.26-37.4,2.71-65.15
		c-14.51-25.89-31.35-38.94-38.12-46.53c0,0,67.92,2.64,70.47-53.21c0.02-0.48-0.18-0.98-0.64-0.12
		c-4.16,7.75-32.35,47.54-70.49,32.08c-25.91-10.5-22.92-48.89-21.18-59.2C59.9,67.25,59.62,66.6,58.74,68.04z"/>
</g>
</svg>
